<?xml version="1.0" encoding="UTF-8" standalone="no"?>
<!DOCTYPE svg PUBLIC "-//W3C//DTD SVG 1.1//EN"
 "http://www.w3.org/Graphics/SVG/1.1/DTD/svg11.dtd">
<!-- Generated by graphviz version 2.28.0 (20110507.0327)
 -->
<!-- Title: cpp2html Pages: 1 -->
<svg width="422pt" height="576pt"
 viewBox="0.00 0.00 422.46 576.00" xmlns="http://www.w3.org/2000/svg" xmlns:xlink="http://www.w3.org/1999/xlink">
<g id="graph1" class="graph" transform="scale(0.829971 0.829971) rotate(0) translate(4 690)">
<title>cpp2html</title>
<!-- &#45;1 -->
<g id="node1" class="node"><title>&#45;1</title>
<ellipse fill="#7ccd7c" stroke="black" cx="220" cy="-668" rx="27" ry="18"/>
<text text-anchor="middle" x="220" y="-664.3" font-family="Times New Roman,serif" font-size="14.00">start</text>
</g>
<!-- &#45;1&#45;&gt;&#45;1 -->
<g id="edge4" class="edge"><title>&#45;1&#45;&gt;&#45;1</title>
<path fill="none" stroke="black" d="M245.443,-674.691C256.028,-675.152 265,-672.922 265,-668 265,-664.77 261.136,-662.699 255.488,-661.788"/>
<polygon fill="black" stroke="black" points="255.599,-658.289 245.443,-661.309 255.266,-665.281 255.599,-658.289"/>
<text text-anchor="middle" x="297.5" y="-664.2" font-family="Times New Roman,serif" font-size="16.00">:id_delim:</text>
</g>
<!-- 0 -->
<g id="node2" class="node"><title>0</title>
<ellipse fill="#7ccd7c" stroke="black" cx="169" cy="-538" rx="42.3701" ry="18"/>
<text text-anchor="middle" x="169" y="-534.3" font-family="Times New Roman,serif" font-size="14.00">scan idfr</text>
</g>
<!-- &#45;1&#45;&gt;0 -->
<g id="edge2" class="edge"><title>&#45;1&#45;&gt;0</title>
<path fill="none" stroke="black" d="M213.437,-650.528C204.839,-628.95 189.662,-590.858 179.469,-565.274"/>
<polygon fill="black" stroke="black" points="182.653,-563.809 175.7,-555.815 176.15,-566.4 182.653,-563.809"/>
<text text-anchor="middle" x="227.5" y="-599.2" font-family="Times New Roman,serif" font-size="16.00">:ident_st:</text>
</g>
<!-- 2 -->
<g id="node4" class="node"><title>2</title>
<ellipse fill="#7ccd7c" stroke="black" cx="30" cy="-278" rx="30.3206" ry="18"/>
<text text-anchor="middle" x="30" y="-274.3" font-family="Times New Roman,serif" font-size="14.00">string</text>
</g>
<!-- &#45;1&#45;&gt;2 -->
<g id="edge8" class="edge"><title>&#45;1&#45;&gt;2</title>
<path fill="none" stroke="black" d="M193.038,-667.029C150.6,-665.5 73,-655.644 73,-604 73,-604 73,-604 73,-342 73,-326.442 63.9437,-311.896 54.1435,-300.709"/>
<polygon fill="black" stroke="black" points="56.4219,-298.026 46.9947,-293.19 51.349,-302.849 56.4219,-298.026"/>
<text text-anchor="middle" x="76.5" y="-469.2" font-family="Times New Roman,serif" font-size="16.00">&quot;</text>
</g>
<!-- 3 -->
<g id="node5" class="node"><title>3</title>
<ellipse fill="#7ccd7c" stroke="black" cx="210" cy="-408" rx="31.2965" ry="18"/>
<text text-anchor="middle" x="210" y="-404.3" font-family="Times New Roman,serif" font-size="14.00">read /</text>
</g>
<!-- &#45;1&#45;&gt;3 -->
<g id="edge10" class="edge"><title>&#45;1&#45;&gt;3</title>
<path fill="none" stroke="black" d="M244.698,-660.594C270.419,-652.256 307,-634.956 307,-604 307,-604 307,-604 307,-472 307,-442.759 275.615,-426.4 248.55,-417.729"/>
<polygon fill="black" stroke="black" points="249.422,-414.337 238.841,-414.872 247.446,-421.052 249.422,-414.337"/>
<text text-anchor="middle" x="309.5" y="-534.2" font-family="Times New Roman,serif" font-size="16.00">/</text>
</g>
<!-- 6 -->
<g id="node7" class="node"><title>6</title>
<ellipse fill="#7ccd7c" stroke="black" cx="401" cy="-278" rx="45.244" ry="18"/>
<text text-anchor="middle" x="401" y="-274.3" font-family="Times New Roman,serif" font-size="14.00">scan num</text>
</g>
<!-- &#45;1&#45;&gt;6 -->
<g id="edge6" class="edge"><title>&#45;1&#45;&gt;6</title>
<path fill="none" stroke="black" d="M246.869,-666.17C286.504,-663.351 356,-651.619 356,-604 356,-604 356,-604 356,-342 356,-326.858 364.715,-312.842 374.474,-301.894"/>
<polygon fill="black" stroke="black" points="377.204,-304.107 381.655,-294.492 372.18,-299.233 377.204,-304.107"/>
<text text-anchor="middle" x="374.5" y="-469.2" font-family="Times New Roman,serif" font-size="16.00">:num:</text>
</g>
<!-- 0&#45;&gt;&#45;1 -->
<g id="edge18" class="edge"><title>0&#45;&gt;&#45;1</title>
<path fill="none" stroke="black" d="M148.7,-553.912C131.401,-568.535 111.086,-591.549 123,-612 136.352,-634.919 163.198,-649.06 185.269,-657.254"/>
<polygon fill="black" stroke="black" points="184.413,-660.661 195.008,-660.61 186.694,-654.043 184.413,-660.661"/>
<text text-anchor="middle" x="155.5" y="-599.2" font-family="Times New Roman,serif" font-size="16.00">:id_delim:</text>
</g>
<!-- 0&#45;&gt;0 -->
<g id="edge12" class="edge"><title>0&#45;&gt;0</title>
<path fill="none" stroke="black" d="M208.241,-544.735C219.916,-544.534 229,-542.289 229,-538 229,-535.051 224.706,-533.069 218.229,-532.052"/>
<polygon fill="black" stroke="black" points="218.485,-528.562 208.241,-531.265 217.935,-535.54 218.485,-528.562"/>
<text text-anchor="middle" x="249" y="-534.2" font-family="Times New Roman,serif" font-size="16.00">:ident:</text>
</g>
<!-- 0&#45;&gt;2 -->
<g id="edge16" class="edge"><title>0&#45;&gt;2</title>
<path fill="none" stroke="black" d="M148.22,-522.11C134.865,-510.665 120,-493.537 120,-474 120,-474 120,-474 120,-342 120,-314.723 91.9114,-298.261 67.1179,-289.043"/>
<polygon fill="black" stroke="black" points="68.0866,-285.675 57.492,-285.747 65.8188,-292.298 68.0866,-285.675"/>
<text text-anchor="middle" x="123.5" y="-404.2" font-family="Times New Roman,serif" font-size="16.00">&quot;</text>
</g>
<!-- 0&#45;&gt;3 -->
<g id="edge14" class="edge"><title>0&#45;&gt;3</title>
<path fill="none" stroke="black" d="M170.972,-519.855C173.007,-504.849 176.776,-482.601 183,-464 186.357,-453.968 191.181,-443.43 195.825,-434.293"/>
<polygon fill="black" stroke="black" points="198.967,-435.837 200.53,-425.358 192.774,-432.575 198.967,-435.837"/>
<text text-anchor="middle" x="185.5" y="-469.2" font-family="Times New Roman,serif" font-size="16.00">/</text>
</g>
<!-- 1 -->
<g id="node3" class="node"><title>1</title>
<ellipse fill="#7ccd7c" stroke="black" cx="222" cy="-278" rx="44.2946" ry="18"/>
<text text-anchor="middle" x="222" y="-274.3" font-family="Times New Roman,serif" font-size="14.00">comment</text>
</g>
<!-- 1&#45;&gt;1 -->
<g id="edge20" class="edge"><title>1&#45;&gt;1</title>
<path fill="none" stroke="black" d="M263.14,-284.724C274.918,-284.46 284,-282.219 284,-278 284,-275.1 279.707,-273.134 273.197,-272.103"/>
<polygon fill="black" stroke="black" points="273.393,-268.607 263.14,-271.276 272.819,-275.584 273.393,-268.607"/>
<text text-anchor="middle" x="310.5" y="-274.2" font-family="Times New Roman,serif" font-size="16.00">anything</text>
</g>
<!-- 2&#45;&gt;&#45;1 -->
<g id="edge24" class="edge"><title>2&#45;&gt;&#45;1</title>
<path fill="none" stroke="black" d="M30,-296.113C30,-308.784 30,-326.469 30,-342 30,-604 30,-604 30,-604 30,-635.995 128.296,-654.557 183.486,-662.457"/>
<polygon fill="black" stroke="black" points="183.196,-665.95 193.581,-663.853 184.155,-659.016 183.196,-665.95"/>
<text text-anchor="middle" x="33.5" y="-469.2" font-family="Times New Roman,serif" font-size="16.00">&quot;</text>
</g>
<!-- 2&#45;&gt;2 -->
<g id="edge26" class="edge"><title>2&#45;&gt;2</title>
<path fill="none" stroke="black" d="M58.103,-284.724C68.9688,-285.022 78,-282.781 78,-278 78,-274.862 74.1106,-272.819 68.3657,-271.869"/>
<polygon fill="black" stroke="black" points="68.2881,-268.358 58.103,-271.276 67.8847,-275.347 68.2881,-268.358"/>
<text text-anchor="middle" x="118.5" y="-274.2" font-family="Times New Roman,serif" font-size="16.00">anything else</text>
</g>
<!-- 4 -->
<g id="node6" class="node"><title>4</title>
<ellipse fill="#7ccd7c" stroke="black" cx="71" cy="-148" rx="31.2965" ry="18"/>
<text text-anchor="middle" x="71" y="-144.3" font-family="Times New Roman,serif" font-size="14.00">read \</text>
</g>
<!-- 2&#45;&gt;4 -->
<g id="edge22" class="edge"><title>2&#45;&gt;4</title>
<path fill="none" stroke="black" d="M31.9725,-259.855C34.0071,-244.849 37.7756,-222.601 44,-204 47.357,-193.968 52.1807,-183.43 56.8247,-174.293"/>
<polygon fill="black" stroke="black" points="59.9671,-175.837 61.5303,-165.358 53.7735,-172.575 59.9671,-175.837"/>
<text text-anchor="middle" x="46.5" y="-209.2" font-family="Times New Roman,serif" font-size="16.00">\</text>
</g>
<!-- 3&#45;&gt;0 -->
<g id="edge30" class="edge"><title>3&#45;&gt;0</title>
<path fill="none" stroke="black" d="M207.676,-426.249C204.756,-445.268 198.892,-476.543 189,-502 187.783,-505.131 186.32,-508.319 184.745,-511.431"/>
<polygon fill="black" stroke="black" points="181.559,-509.962 179.82,-520.413 187.697,-513.327 181.559,-509.962"/>
<text text-anchor="middle" x="230.5" y="-469.2" font-family="Times New Roman,serif" font-size="16.00">:ident_st:</text>
</g>
<!-- 3&#45;&gt;1 -->
<g id="edge28" class="edge"><title>3&#45;&gt;1</title>
<path fill="none" stroke="black" d="M211.594,-390.003C213.602,-368.581 217.078,-331.502 219.456,-306.14"/>
<polygon fill="black" stroke="black" points="222.951,-306.351 220.4,-296.068 215.982,-305.697 222.951,-306.351"/>
<text text-anchor="middle" x="219.5" y="-339.2" font-family="Times New Roman,serif" font-size="16.00">/</text>
</g>
<!-- 3&#45;&gt;2 -->
<g id="edge34" class="edge"><title>3&#45;&gt;2</title>
<path fill="none" stroke="black" d="M200.569,-390.483C187.945,-369.778 163.667,-334.521 134,-314 114.477,-300.495 89.3187,-291.845 68.6372,-286.523"/>
<polygon fill="black" stroke="black" points="69.4303,-283.114 58.8883,-284.171 67.7885,-289.919 69.4303,-283.114"/>
<text text-anchor="middle" x="177.5" y="-339.2" font-family="Times New Roman,serif" font-size="16.00">&quot;</text>
</g>
<!-- 3&#45;&gt;6 -->
<g id="edge32" class="edge"><title>3&#45;&gt;6</title>
<path fill="none" stroke="black" d="M231.088,-394.511C241.31,-388.164 253.596,-380.096 264,-372 283.608,-356.742 284.981,-348.715 305,-334 323.669,-320.278 346.057,-307.277 364.516,-297.363"/>
<polygon fill="black" stroke="black" points="366.294,-300.382 373.499,-292.614 363.022,-294.194 366.294,-300.382"/>
<text text-anchor="middle" x="323.5" y="-339.2" font-family="Times New Roman,serif" font-size="16.00">:num:</text>
</g>
<!-- 4&#45;&gt;2 -->
<g id="edge36" class="edge"><title>4&#45;&gt;2</title>
<path fill="none" stroke="black" d="M68.6757,-166.249C65.7563,-185.268 59.8918,-216.543 50,-242 48.7192,-245.296 47.1647,-248.655 45.4946,-251.923"/>
<polygon fill="black" stroke="black" points="42.3818,-250.32 40.6126,-260.766 48.5099,-253.703 42.3818,-250.32"/>
<text text-anchor="middle" x="86.5" y="-209.2" font-family="Times New Roman,serif" font-size="16.00">:escseq:</text>
</g>
<!-- 7 -->
<g id="node8" class="node"><title>7</title>
<ellipse fill="#7ccd7c" stroke="black" cx="263" cy="-18" rx="44.2946" ry="18"/>
<text text-anchor="middle" x="263" y="-14.3" font-family="Times New Roman,serif" font-size="14.00">error x_x</text>
</g>
<!-- 4&#45;&gt;7 -->
<g id="edge38" class="edge"><title>4&#45;&gt;7</title>
<path fill="none" stroke="black" d="M90.8242,-133.784C124.406,-111.396 192.695,-65.8703 232.436,-39.376"/>
<polygon fill="black" stroke="black" points="234.557,-42.1688 240.936,-33.7096 230.674,-36.3444 234.557,-42.1688"/>
<text text-anchor="middle" x="220.5" y="-79.2" font-family="Times New Roman,serif" font-size="16.00">anything else</text>
</g>
<!-- 6&#45;&gt;&#45;1 -->
<g id="edge44" class="edge"><title>6&#45;&gt;&#45;1</title>
<path fill="none" stroke="black" d="M412.875,-295.501C420.506,-307.726 429,-325.124 429,-342 429,-604 429,-604 429,-604 429,-639.483 317.174,-656.764 257.118,-663.487"/>
<polygon fill="black" stroke="black" points="256.464,-660.037 246.895,-664.586 257.212,-666.997 256.464,-660.037"/>
<text text-anchor="middle" x="461.5" y="-469.2" font-family="Times New Roman,serif" font-size="16.00">:id_delim:</text>
</g>
<!-- 6&#45;&gt;3 -->
<g id="edge42" class="edge"><title>6&#45;&gt;3</title>
<path fill="none" stroke="black" d="M366.601,-289.707C340.277,-298.909 303.877,-313.882 276,-334 257.179,-347.582 239.749,-367.305 227.532,-382.827"/>
<polygon fill="black" stroke="black" points="224.61,-380.886 221.306,-390.953 230.166,-385.144 224.61,-380.886"/>
<text text-anchor="middle" x="278.5" y="-339.2" font-family="Times New Roman,serif" font-size="16.00">/</text>
</g>
<!-- 6&#45;&gt;6 -->
<g id="edge40" class="edge"><title>6&#45;&gt;6</title>
<path fill="none" stroke="black" d="M443.102,-284.717C454.925,-284.422 464,-282.184 464,-278 464,-275.124 459.71,-273.167 453.188,-272.129"/>
<polygon fill="black" stroke="black" points="453.359,-268.631 443.102,-271.283 452.775,-275.607 453.359,-268.631"/>
<text text-anchor="middle" x="482.5" y="-274.2" font-family="Times New Roman,serif" font-size="16.00">:num:</text>
</g>
<!-- 6&#45;&gt;7 -->
<g id="edge46" class="edge"><title>6&#45;&gt;7</title>
<path fill="none" stroke="black" d="M376.926,-262.536C361.748,-251.408 345,-234.487 345,-214 345,-214 345,-214 345,-82 345,-59.5817 325.489,-44.044 305.501,-34.0086"/>
<polygon fill="black" stroke="black" points="306.898,-30.7986 296.353,-29.78 303.961,-37.1527 306.898,-30.7986"/>
<text text-anchor="middle" x="385.5" y="-144.2" font-family="Times New Roman,serif" font-size="16.00">anything else</text>
</g>
</g>
</svg>
