<?xml version="1.0" encoding="UTF-8" standalone="no"?>
<!DOCTYPE svg PUBLIC "-//W3C//DTD SVG 1.1//EN"
 "http://www.w3.org/Graphics/SVG/1.1/DTD/svg11.dtd">
<!-- Generated by graphviz version 2.28.0 (20110507.0327)
 -->
<!-- Title: cpp2html Pages: 1 -->
<svg width="504pt" height="592pt"
 viewBox="0.00 0.00 504.00 591.84" xmlns="http://www.w3.org/2000/svg" xmlns:xlink="http://www.w3.org/1999/xlink">
<g id="graph1" class="graph" transform="scale(0.852792 0.852792) rotate(0) translate(4 690)">
<title>cpp2html</title>
<!-- &#45;1 -->
<g id="node1" class="node"><title>&#45;1</title>
<ellipse fill="#7ccd7c" stroke="black" cx="205" cy="-668" rx="27" ry="18"/>
<text text-anchor="middle" x="205" y="-664.3" font-family="Times New Roman,serif" font-size="14.00">start</text>
</g>
<!-- &#45;1&#45;&gt;&#45;1 -->
<g id="edge4" class="edge"><title>&#45;1&#45;&gt;&#45;1</title>
<path fill="none" stroke="black" d="M230.443,-674.691C241.028,-675.152 250,-672.922 250,-668 250,-664.77 246.136,-662.699 240.488,-661.788"/>
<polygon fill="black" stroke="black" points="240.599,-658.289 230.443,-661.309 240.266,-665.281 240.599,-658.289"/>
<text text-anchor="middle" x="282.5" y="-664.2" font-family="Times New Roman,serif" font-size="16.00">:id_delim:</text>
</g>
<!-- 0 -->
<g id="node2" class="node"><title>0</title>
<ellipse fill="#7ccd7c" stroke="black" cx="290" cy="-538" rx="42.3701" ry="18"/>
<text text-anchor="middle" x="290" y="-534.3" font-family="Times New Roman,serif" font-size="14.00">scan idfr</text>
</g>
<!-- &#45;1&#45;&gt;0 -->
<g id="edge2" class="edge"><title>&#45;1&#45;&gt;0</title>
<path fill="none" stroke="black" d="M225.402,-655.976C241.115,-646.415 262.099,-631.118 274,-612 282.469,-598.395 286.49,-580.925 288.384,-566.486"/>
<polygon fill="black" stroke="black" points="291.906,-566.458 289.456,-556.15 284.943,-565.736 291.906,-566.458"/>
<text text-anchor="middle" x="312.5" y="-599.2" font-family="Times New Roman,serif" font-size="16.00">:ident_st:</text>
</g>
<!-- 2 -->
<g id="node4" class="node"><title>2</title>
<ellipse fill="#7ccd7c" stroke="black" cx="43" cy="-278" rx="30.3206" ry="18"/>
<text text-anchor="middle" x="43" y="-274.3" font-family="Times New Roman,serif" font-size="14.00">string</text>
</g>
<!-- &#45;1&#45;&gt;2 -->
<g id="edge8" class="edge"><title>&#45;1&#45;&gt;2</title>
<path fill="none" stroke="black" d="M178.2,-664.44C122.632,-658.389 0,-640.861 0,-604 0,-604 0,-604 0,-342 0,-326.442 9.05626,-311.896 18.8565,-300.709"/>
<polygon fill="black" stroke="black" points="21.651,-302.849 26.0053,-293.19 16.5781,-298.026 21.651,-302.849"/>
<text text-anchor="middle" x="3.5" y="-469.2" font-family="Times New Roman,serif" font-size="16.00">&quot;</text>
</g>
<!-- 3 -->
<g id="node5" class="node"><title>3</title>
<ellipse fill="#7ccd7c" stroke="black" cx="298" cy="-408" rx="31.2965" ry="18"/>
<text text-anchor="middle" x="298" y="-404.3" font-family="Times New Roman,serif" font-size="14.00">read /</text>
</g>
<!-- &#45;1&#45;&gt;3 -->
<g id="edge10" class="edge"><title>&#45;1&#45;&gt;3</title>
<path fill="none" stroke="black" d="M231.658,-665.04C290.437,-659.987 426,-643.996 426,-604 426,-604 426,-604 426,-472 426,-432.607 376.594,-417.845 339.171,-412.314"/>
<polygon fill="black" stroke="black" points="339.354,-408.808 328.985,-410.985 338.449,-415.749 339.354,-408.808"/>
<text text-anchor="middle" x="428.5" y="-534.2" font-family="Times New Roman,serif" font-size="16.00">/</text>
</g>
<!-- 6 -->
<g id="node7" class="node"><title>6</title>
<ellipse fill="#7ccd7c" stroke="black" cx="236" cy="-278" rx="45.244" ry="18"/>
<text text-anchor="middle" x="236" y="-274.3" font-family="Times New Roman,serif" font-size="14.00">scan num</text>
</g>
<!-- &#45;1&#45;&gt;6 -->
<g id="edge6" class="edge"><title>&#45;1&#45;&gt;6</title>
<path fill="none" stroke="black" d="M178.294,-664.566C143.209,-659.734 86,-645.493 86,-604 86,-604 86,-604 86,-500 86,-413.274 85.5429,-377.137 145,-314 148.69,-310.082 171.173,-301.419 192.865,-293.692"/>
<polygon fill="black" stroke="black" points="194.111,-296.964 202.381,-290.342 191.786,-290.362 194.111,-296.964"/>
<text text-anchor="middle" x="105.5" y="-469.2" font-family="Times New Roman,serif" font-size="16.00">:num:</text>
</g>
<!-- 0&#45;&gt;&#45;1 -->
<g id="edge18" class="edge"><title>0&#45;&gt;&#45;1</title>
<path fill="none" stroke="black" d="M258.583,-550.277C239.357,-559.001 216.34,-573.156 205,-594 197.446,-607.886 197.253,-625.569 199.041,-640.054"/>
<polygon fill="black" stroke="black" points="195.586,-640.611 200.616,-649.935 202.498,-639.509 195.586,-640.611"/>
<text text-anchor="middle" x="237.5" y="-599.2" font-family="Times New Roman,serif" font-size="16.00">:id_delim:</text>
</g>
<!-- 0&#45;&gt;0 -->
<g id="edge12" class="edge"><title>0&#45;&gt;0</title>
<path fill="none" stroke="black" d="M329.241,-544.735C340.916,-544.534 350,-542.289 350,-538 350,-535.051 345.706,-533.069 339.229,-532.052"/>
<polygon fill="black" stroke="black" points="339.485,-528.562 329.241,-531.265 338.935,-535.54 339.485,-528.562"/>
<text text-anchor="middle" x="370" y="-534.2" font-family="Times New Roman,serif" font-size="16.00">:ident:</text>
</g>
<!-- 0&#45;&gt;2 -->
<g id="edge16" class="edge"><title>0&#45;&gt;2</title>
<path fill="none" stroke="black" d="M276.82,-520.726C264.513,-505.714 245.469,-482.95 228,-464 171.902,-403.145 101.934,-335.192 66.2635,-301.078"/>
<polygon fill="black" stroke="black" points="68.4304,-298.308 58.7796,-293.936 63.5978,-303.372 68.4304,-298.308"/>
<text text-anchor="middle" x="195.5" y="-404.2" font-family="Times New Roman,serif" font-size="16.00">&quot;</text>
</g>
<!-- 0&#45;&gt;3 -->
<g id="edge14" class="edge"><title>0&#45;&gt;3</title>
<path fill="none" stroke="black" d="M291.062,-520.003C292.401,-498.581 294.719,-461.502 296.304,-436.14"/>
<polygon fill="black" stroke="black" points="299.803,-436.267 296.933,-426.068 292.816,-435.83 299.803,-436.267"/>
<text text-anchor="middle" x="297.5" y="-469.2" font-family="Times New Roman,serif" font-size="16.00">/</text>
</g>
<!-- 1 -->
<g id="node3" class="node"><title>1</title>
<ellipse fill="#7ccd7c" stroke="black" cx="399" cy="-278" rx="44.2946" ry="18"/>
<text text-anchor="middle" x="399" y="-274.3" font-family="Times New Roman,serif" font-size="14.00">comment</text>
</g>
<!-- 1&#45;&gt;&#45;1 -->
<g id="edge20" class="edge"><title>1&#45;&gt;&#45;1</title>
<path fill="none" stroke="black" d="M429.536,-291.211C449.539,-301.445 472,-318.228 472,-342 472,-604 472,-604 472,-604 472,-650.643 315.702,-662.792 242.274,-665.925"/>
<polygon fill="black" stroke="black" points="241.926,-662.436 232.071,-666.325 242.2,-669.431 241.926,-662.436"/>
<text text-anchor="middle" x="478.5" y="-469.2" font-family="Times New Roman,serif" font-size="16.00">\n</text>
</g>
<!-- 1&#45;&gt;1 -->
<g id="edge22" class="edge"><title>1&#45;&gt;1</title>
<path fill="none" stroke="black" d="M440.14,-284.724C451.918,-284.46 461,-282.219 461,-278 461,-275.1 456.707,-273.134 450.197,-272.103"/>
<polygon fill="black" stroke="black" points="450.393,-268.607 440.14,-271.276 449.819,-275.584 450.393,-268.607"/>
<text text-anchor="middle" x="501.5" y="-274.2" font-family="Times New Roman,serif" font-size="16.00">anything else</text>
</g>
<!-- 2&#45;&gt;&#45;1 -->
<g id="edge26" class="edge"><title>2&#45;&gt;&#45;1</title>
<path fill="none" stroke="black" d="M43,-296.113C43,-308.784 43,-326.469 43,-342 43,-604 43,-604 43,-604 43,-630.849 121.271,-650.811 169.001,-660.489"/>
<polygon fill="black" stroke="black" points="168.484,-663.954 178.972,-662.452 169.836,-657.086 168.484,-663.954"/>
<text text-anchor="middle" x="46.5" y="-469.2" font-family="Times New Roman,serif" font-size="16.00">&quot;</text>
</g>
<!-- 2&#45;&gt;2 -->
<g id="edge28" class="edge"><title>2&#45;&gt;2</title>
<path fill="none" stroke="black" d="M71.103,-284.724C81.9688,-285.022 91,-282.781 91,-278 91,-274.862 87.1106,-272.819 81.3657,-271.869"/>
<polygon fill="black" stroke="black" points="81.2881,-268.358 71.103,-271.276 80.8847,-275.347 81.2881,-268.358"/>
<text text-anchor="middle" x="131.5" y="-274.2" font-family="Times New Roman,serif" font-size="16.00">anything else</text>
</g>
<!-- 4 -->
<g id="node6" class="node"><title>4</title>
<ellipse fill="#7ccd7c" stroke="black" cx="84" cy="-148" rx="31.2965" ry="18"/>
<text text-anchor="middle" x="84" y="-144.3" font-family="Times New Roman,serif" font-size="14.00">read \</text>
</g>
<!-- 2&#45;&gt;4 -->
<g id="edge24" class="edge"><title>2&#45;&gt;4</title>
<path fill="none" stroke="black" d="M44.9725,-259.855C47.0071,-244.849 50.7756,-222.601 57,-204 60.357,-193.968 65.1807,-183.43 69.8247,-174.293"/>
<polygon fill="black" stroke="black" points="72.9671,-175.837 74.5303,-165.358 66.7735,-172.575 72.9671,-175.837"/>
<text text-anchor="middle" x="59.5" y="-209.2" font-family="Times New Roman,serif" font-size="16.00">\</text>
</g>
<!-- 3&#45;&gt;0 -->
<g id="edge32" class="edge"><title>3&#45;&gt;0</title>
<path fill="none" stroke="black" d="M305.015,-425.798C307.045,-431.475 308.986,-437.917 310,-444 314.244,-469.461 313.457,-477.008 307,-502 306.214,-505.041 305.153,-508.133 303.942,-511.155"/>
<polygon fill="black" stroke="black" points="300.677,-509.881 299.72,-520.432 307.048,-512.781 300.677,-509.881"/>
<text text-anchor="middle" x="342.5" y="-469.2" font-family="Times New Roman,serif" font-size="16.00">:ident_st:</text>
</g>
<!-- 3&#45;&gt;1 -->
<g id="edge30" class="edge"><title>3&#45;&gt;1</title>
<path fill="none" stroke="black" d="M310.385,-391.305C327.706,-369.353 359.33,-329.275 379.74,-303.408"/>
<polygon fill="black" stroke="black" points="382.749,-305.246 386.195,-295.228 377.253,-300.91 382.749,-305.246"/>
<text text-anchor="middle" x="357.5" y="-339.2" font-family="Times New Roman,serif" font-size="16.00">/</text>
</g>
<!-- 3&#45;&gt;2 -->
<g id="edge36" class="edge"><title>3&#45;&gt;2</title>
<path fill="none" stroke="black" d="M275.37,-395.641C229.815,-372.774 126.951,-321.14 74.7175,-294.921"/>
<polygon fill="black" stroke="black" points="76.0863,-291.692 65.5788,-290.334 72.9459,-297.948 76.0863,-291.692"/>
<text text-anchor="middle" x="191.5" y="-339.2" font-family="Times New Roman,serif" font-size="16.00">&quot;</text>
</g>
<!-- 3&#45;&gt;6 -->
<g id="edge34" class="edge"><title>3&#45;&gt;6</title>
<path fill="none" stroke="black" d="M293.93,-390.115C288.867,-370.875 279.128,-338.879 265,-314 262.896,-310.295 260.389,-306.595 257.743,-303.064"/>
<polygon fill="black" stroke="black" points="260.428,-300.817 251.44,-295.206 254.967,-305.197 260.428,-300.817"/>
<text text-anchor="middle" x="300.5" y="-339.2" font-family="Times New Roman,serif" font-size="16.00">:num:</text>
</g>
<!-- 4&#45;&gt;2 -->
<g id="edge38" class="edge"><title>4&#45;&gt;2</title>
<path fill="none" stroke="black" d="M81.6757,-166.249C78.7563,-185.268 72.8918,-216.543 63,-242 61.7192,-245.296 60.1647,-248.655 58.4946,-251.923"/>
<polygon fill="black" stroke="black" points="55.3818,-250.32 53.6126,-260.766 61.5099,-253.703 55.3818,-250.32"/>
<text text-anchor="middle" x="99.5" y="-209.2" font-family="Times New Roman,serif" font-size="16.00">:escseq:</text>
</g>
<!-- 7 -->
<g id="node8" class="node"><title>7</title>
<ellipse fill="#7ccd7c" stroke="black" cx="236" cy="-18" rx="44.2946" ry="18"/>
<text text-anchor="middle" x="236" y="-14.3" font-family="Times New Roman,serif" font-size="14.00">error x_x</text>
</g>
<!-- 4&#45;&gt;7 -->
<g id="edge40" class="edge"><title>4&#45;&gt;7</title>
<path fill="none" stroke="black" d="M94.0437,-130.731C104.399,-114.882 121.717,-90.7873 141,-74 158.215,-59.0129 180.115,-46.011 198.548,-36.417"/>
<polygon fill="black" stroke="black" points="200.217,-39.4951 207.555,-31.8529 197.053,-33.251 200.217,-39.4951"/>
<text text-anchor="middle" x="181.5" y="-79.2" font-family="Times New Roman,serif" font-size="16.00">anything else</text>
</g>
<!-- 6&#45;&gt;&#45;1 -->
<g id="edge46" class="edge"><title>6&#45;&gt;&#45;1</title>
<path fill="none" stroke="black" d="M203.791,-290.761C182.691,-300.772 159,-317.473 159,-342 159,-604 159,-604 159,-604 159,-620.505 169.426,-635.574 180.35,-646.833"/>
<polygon fill="black" stroke="black" points="178.214,-649.631 187.871,-653.99 183.04,-644.561 178.214,-649.631"/>
<text text-anchor="middle" x="191.5" y="-469.2" font-family="Times New Roman,serif" font-size="16.00">:id_delim:</text>
</g>
<!-- 6&#45;&gt;3 -->
<g id="edge44" class="edge"><title>6&#45;&gt;3</title>
<path fill="none" stroke="black" d="M242.267,-296.108C247.935,-311.09 256.783,-333.323 266,-352 270.987,-362.105 277.08,-372.889 282.606,-382.206"/>
<polygon fill="black" stroke="black" points="279.72,-384.199 287.881,-390.956 285.715,-380.585 279.72,-384.199"/>
<text text-anchor="middle" x="268.5" y="-339.2" font-family="Times New Roman,serif" font-size="16.00">/</text>
</g>
<!-- 6&#45;&gt;6 -->
<g id="edge42" class="edge"><title>6&#45;&gt;6</title>
<path fill="none" stroke="black" d="M278.102,-284.717C289.925,-284.422 299,-282.184 299,-278 299,-275.124 294.71,-273.167 288.188,-272.129"/>
<polygon fill="black" stroke="black" points="288.359,-268.631 278.102,-271.283 287.775,-275.607 288.359,-268.631"/>
<text text-anchor="middle" x="317.5" y="-274.2" font-family="Times New Roman,serif" font-size="16.00">:num:</text>
</g>
<!-- 6&#45;&gt;7 -->
<g id="edge48" class="edge"><title>6&#45;&gt;7</title>
<path fill="none" stroke="black" d="M236,-259.887C236,-247.216 236,-229.531 236,-214 236,-214 236,-214 236,-82 236,-70.3516 236,-57.4916 236,-46.4442"/>
<polygon fill="black" stroke="black" points="239.5,-46.1129 236,-36.1129 232.5,-46.113 239.5,-46.1129"/>
<text text-anchor="middle" x="276.5" y="-144.2" font-family="Times New Roman,serif" font-size="16.00">anything else</text>
</g>
<!-- 7&#45;&gt;&#45;1 -->
<g id="edge50" class="edge"><title>7&#45;&gt;&#45;1</title>
<path fill="none" stroke="black" d="M280.353,-18.2373C371.207,-17.8715 570,-23.729 570,-82 570,-604 570,-604 570,-604 570,-637.049 334.624,-657.646 241.902,-664.477"/>
<polygon fill="black" stroke="black" points="241.561,-660.992 231.839,-665.205 242.066,-667.974 241.561,-660.992"/>
<text text-anchor="middle" x="576.5" y="-339.2" font-family="Times New Roman,serif" font-size="16.00">\n</text>
</g>
<!-- 7&#45;&gt;7 -->
<g id="edge52" class="edge"><title>7&#45;&gt;7</title>
<path fill="none" stroke="black" d="M277.14,-24.7236C288.918,-24.46 298,-22.2188 298,-18 298,-15.0996 293.707,-13.1339 287.197,-12.1029"/>
<polygon fill="black" stroke="black" points="287.393,-8.60729 277.14,-11.2764 286.819,-15.5838 287.393,-8.60729"/>
<text text-anchor="middle" x="338.5" y="-14.2" font-family="Times New Roman,serif" font-size="16.00">anything else</text>
</g>
</g>
</svg>
