<?xml version="1.0" encoding="UTF-8" standalone="no"?>
<!DOCTYPE svg PUBLIC "-//W3C//DTD SVG 1.1//EN"
 "http://www.w3.org/Graphics/SVG/1.1/DTD/svg11.dtd">
<!-- Generated by graphviz version 2.28.0 (20110507.0327)
 -->
<!-- Title: comments_strings Pages: 1 -->
<svg width="374pt" height="304pt"
 viewBox="0.00 0.00 374.00 304.00" xmlns="http://www.w3.org/2000/svg" xmlns:xlink="http://www.w3.org/1999/xlink">
<g id="graph1" class="graph" transform="scale(1 1) rotate(0) translate(4 300)">
<title>comments_strings</title>
<!-- 0 -->
<g id="node1" class="node"><title>0</title>
<ellipse fill="#7ccd7c" stroke="black" cx="89" cy="-278" rx="50.5427" ry="18"/>
<text text-anchor="middle" x="89" y="-274.3" font-family="Times New Roman,serif" font-size="14.00">regular text</text>
</g>
<!-- 0&#45;&gt;0 -->
<g id="edge2" class="edge"><title>0&#45;&gt;0</title>
<path fill="none" stroke="black" d="M136.036,-284.669C148.01,-284.231 157,-282.008 157,-278 157,-275.245 152.751,-273.333 146.204,-272.265"/>
<polygon fill="black" stroke="black" points="146.314,-268.76 136.036,-271.331 145.674,-275.731 146.314,-268.76"/>
<text text-anchor="middle" x="213" y="-274.2" font-family="Times New Roman,serif" font-size="16.00">anything but &quot; or /</text>
</g>
<!-- 2 -->
<g id="node3" class="node"><title>2</title>
<ellipse fill="#7ccd7c" stroke="black" cx="43" cy="-18" rx="30.3206" ry="18"/>
<text text-anchor="middle" x="43" y="-14.3" font-family="Times New Roman,serif" font-size="14.00">string</text>
</g>
<!-- 0&#45;&gt;2 -->
<g id="edge6" class="edge"><title>0&#45;&gt;2</title>
<path fill="none" stroke="black" d="M50.7395,-266.242C26.6174,-256.86 0,-240.503 0,-214 0,-214 0,-214 0,-82 0,-66.4423 9.05626,-51.8957 18.8565,-40.7088"/>
<polygon fill="black" stroke="black" points="21.651,-42.8492 26.0053,-33.1904 16.5781,-38.0257 21.651,-42.8492"/>
<text text-anchor="middle" x="3.5" y="-144.2" font-family="Times New Roman,serif" font-size="16.00">&quot;</text>
</g>
<!-- 3 -->
<g id="node4" class="node"><title>3</title>
<ellipse fill="#7ccd7c" stroke="black" cx="126" cy="-148" rx="52.4675" ry="18"/>
<text text-anchor="middle" x="126" y="-144.3" font-family="Times New Roman,serif" font-size="14.00">just read a /</text>
</g>
<!-- 0&#45;&gt;3 -->
<g id="edge4" class="edge"><title>0&#45;&gt;3</title>
<path fill="none" stroke="black" d="M91.2514,-259.944C93.4647,-244.994 97.3388,-222.78 103,-204 105.896,-194.394 109.896,-184.177 113.75,-175.188"/>
<polygon fill="black" stroke="black" points="116.968,-176.566 117.814,-166.005 110.567,-173.733 116.968,-176.566"/>
<text text-anchor="middle" x="105.5" y="-209.2" font-family="Times New Roman,serif" font-size="16.00">/</text>
</g>
<!-- 1 -->
<g id="node2" class="node"><title>1</title>
<ellipse fill="#7ccd7c" stroke="black" cx="251" cy="-18" rx="44.2946" ry="18"/>
<text text-anchor="middle" x="251" y="-14.3" font-family="Times New Roman,serif" font-size="14.00">comment</text>
</g>
<!-- 1&#45;&gt;0 -->
<g id="edge10" class="edge"><title>1&#45;&gt;0</title>
<path fill="none" stroke="black" d="M259.058,-35.966C264.236,-48.4163 270,-65.892 270,-82 270,-214 270,-214 270,-214 270,-240.882 197.888,-258.928 144.698,-268.583"/>
<polygon fill="black" stroke="black" points="143.917,-265.166 134.674,-270.345 145.129,-272.06 143.917,-265.166"/>
<text text-anchor="middle" x="294.5" y="-144.2" font-family="Times New Roman,serif" font-size="16.00">newline</text>
</g>
<!-- 1&#45;&gt;1 -->
<g id="edge8" class="edge"><title>1&#45;&gt;1</title>
<path fill="none" stroke="black" d="M292.14,-24.7236C303.918,-24.46 313,-22.2188 313,-18 313,-15.0996 308.707,-13.1339 302.197,-12.1029"/>
<polygon fill="black" stroke="black" points="302.393,-8.60729 292.14,-11.2764 301.819,-15.5838 302.393,-8.60729"/>
<text text-anchor="middle" x="339.5" y="-14.2" font-family="Times New Roman,serif" font-size="16.00">anything</text>
</g>
<!-- 2&#45;&gt;0 -->
<g id="edge14" class="edge"><title>2&#45;&gt;0</title>
<path fill="none" stroke="black" d="M43,-36.1129C43,-48.7838 43,-66.4688 43,-82 43,-214 43,-214 43,-214 43,-229.148 51.7814,-243.086 61.6706,-253.979"/>
<polygon fill="black" stroke="black" points="59.437,-256.698 68.9575,-261.347 64.414,-251.775 59.437,-256.698"/>
<text text-anchor="middle" x="46.5" y="-144.2" font-family="Times New Roman,serif" font-size="16.00">&quot;</text>
</g>
<!-- 2&#45;&gt;2 -->
<g id="edge12" class="edge"><title>2&#45;&gt;2</title>
<path fill="none" stroke="black" d="M71.103,-24.7236C81.9688,-25.0225 91,-22.7813 91,-18 91,-14.8623 87.1106,-12.8185 81.3657,-11.8686"/>
<polygon fill="black" stroke="black" points="81.2881,-8.35841 71.103,-11.2764 80.8847,-15.3468 81.2881,-8.35841"/>
<text text-anchor="middle" x="131.5" y="-14.2" font-family="Times New Roman,serif" font-size="16.00">anything else</text>
</g>
<!-- 3&#45;&gt;0 -->
<g id="edge18" class="edge"><title>3&#45;&gt;0</title>
<path fill="none" stroke="black" d="M124.603,-166.256C122.664,-185.279 118.286,-216.56 109,-242 107.872,-245.09 106.484,-248.225 104.97,-251.284"/>
<polygon fill="black" stroke="black" points="101.871,-249.656 100.181,-260.115 108.025,-252.993 101.871,-249.656"/>
<text text-anchor="middle" x="176" y="-209.2" font-family="Times New Roman,serif" font-size="16.00">anything but &quot; or /</text>
</g>
<!-- 3&#45;&gt;1 -->
<g id="edge16" class="edge"><title>3&#45;&gt;1</title>
<path fill="none" stroke="black" d="M141.831,-130.789C163.621,-108.476 202.995,-68.1571 228.025,-42.5263"/>
<polygon fill="black" stroke="black" points="230.815,-44.6795 235.297,-35.0797 225.806,-39.7887 230.815,-44.6795"/>
<text text-anchor="middle" x="198.5" y="-79.2" font-family="Times New Roman,serif" font-size="16.00">/</text>
</g>
<!-- 3&#45;&gt;2 -->
<g id="edge20" class="edge"><title>3&#45;&gt;2</title>
<path fill="none" stroke="black" d="M115.149,-130.266C100.826,-108.177 75.496,-69.1143 58.9803,-43.6444"/>
<polygon fill="black" stroke="black" points="61.7085,-41.4185 53.3311,-34.9323 55.8352,-45.227 61.7085,-41.4185"/>
<text text-anchor="middle" x="94.5" y="-79.2" font-family="Times New Roman,serif" font-size="16.00">&quot;</text>
</g>
</g>
</svg>
