<?xml version="1.0" encoding="UTF-8" standalone="no"?>
<!DOCTYPE svg PUBLIC "-//W3C//DTD SVG 1.1//EN"
 "http://www.w3.org/Graphics/SVG/1.1/DTD/svg11.dtd">
<!-- Generated by graphviz version 2.28.0 (20121221.0049)
 -->
<!-- Title: cpp2html Pages: 1 -->
<svg width="374pt" height="108pt"
 viewBox="0.00 0.00 374.48 108.00" xmlns="http://www.w3.org/2000/svg" xmlns:xlink="http://www.w3.org/1999/xlink">
<g id="graph1" class="graph" transform="scale(1 1) rotate(0) translate(4 104)">
<title>cpp2html</title>
<!-- readWS -->
<g id="node1" class="node"><title>readWS</title>
<ellipse fill="#7ccd7c" stroke="black" cx="63.481" cy="-50" rx="45.4433" ry="26.7407"/>
<text text-anchor="middle" x="63.481" y="-53.8" font-family="Times,serif" font-size="14.00">Just read</text>
<text text-anchor="middle" x="63.481" y="-38.8" font-family="Times,serif" font-size="14.00">WS</text>
</g>
<!-- readWS&#45;&gt;readWS -->
<g id="edge2" class="edge"><title>readWS&#45;&gt;readWS</title>
<path fill="none" stroke="black" d="M63.481,-77.2124C63.481,-83.3033 63.481,-88 63.481,-88 63.481,-88 0,-88 0,-88 0,-88 0,-0 0,-0 0,-0 63.481,-0 63.481,-0 63.481,-0 63.481,-12.9513 63.481,-12.9513"/>
<polygon fill="black" stroke="black" points="59.9811,-12.9512 63.481,-22.9513 66.9811,-12.9513 59.9811,-12.9512"/>
<text text-anchor="middle" x="10" y="-39.8182" font-family="Times,serif" font-size="12.00">WS</text>
</g>
<!-- readNon -->
<g id="node2" class="node"><title>readNon</title>
<ellipse fill="#7ccd7c" stroke="black" cx="263.481" cy="-50" rx="45.4433" ry="26.7407"/>
<text text-anchor="middle" x="263.481" y="-53.8" font-family="Times,serif" font-size="14.00">Just read</text>
<text text-anchor="middle" x="263.481" y="-38.8" font-family="Times,serif" font-size="14.00">non&#45;WS</text>
</g>
<!-- readWS&#45;&gt;readNon -->
<g id="edge4" class="edge"><title>readWS&#45;&gt;readNon</title>
<path fill="none" stroke="black" d="M107.372,-58C107.372,-58 210.037,-58 210.037,-58"/>
<polygon fill="black" stroke="black" points="210.037,-61.5001 220.037,-58 210.037,-54.5001 210.037,-61.5001"/>
<text text-anchor="middle" x="158.704" y="-47.9" font-family="Times,serif" font-size="12.00">non&#45;WS</text>
</g>
<!-- readNon&#45;&gt;readWS -->
<g id="edge8" class="edge"><title>readNon&#45;&gt;readWS</title>
<path fill="none" stroke="black" d="M220.576,-41C220.576,-41 116.66,-41 116.66,-41"/>
<polygon fill="black" stroke="black" points="116.66,-37.5001 106.66,-41 116.66,-44.5001 116.66,-37.5001"/>
<text text-anchor="middle" x="168.618" y="-30.9" font-family="Times,serif" font-size="12.00">WS</text>
</g>
<!-- readNon&#45;&gt;readNon -->
<g id="edge6" class="edge"><title>readNon&#45;&gt;readNon</title>
<path fill="none" stroke="black" d="M263.481,-77.0487C263.481,-88.8298 263.481,-100 263.481,-100 263.481,-100 326.962,-100 326.962,-100 326.962,-100 326.962,-12 326.962,-12 326.962,-12 263.481,-12 263.481,-12 263.481,-12 263.481,-13.0788 263.481,-13.0788"/>
<polygon fill="black" stroke="black" points="259.981,-12.7876 263.481,-22.7876 266.981,-12.7877 259.981,-12.7876"/>
<text text-anchor="middle" x="308.962" y="-63.8363" font-family="Times,serif" font-size="12.00">non&#45;WS</text>
</g>
</g>
</svg>
